<?xml version="1.0" standalone="no"?>
<!DOCTYPE svg PUBLIC "-//W3C//DTD SVG 20010904//EN"
 "http://www.w3.org/TR/2001/REC-SVG-20010904/DTD/svg10.dtd">
<svg version="1.0" xmlns="http://www.w3.org/2000/svg"
 width="1080.000000pt" height="389.000000pt" viewBox="0 0 1080.000000 389.000000"
 preserveAspectRatio="xMidYMid meet">

<g transform="translate(0.000000,389.000000) scale(0.100000,-0.100000)"
fill="#000000" stroke="none">
<path d="M2340 3853 c-674 -73 -1251 -484 -1540 -1097 -148 -312 -208 -682
-166 -1016 57 -448 224 -799 536 -1124 444 -461 1123 -669 1750 -534 575 123
1052 489 1313 1008 136 271 195 502 204 805 6 209 -7 335 -52 516 -90 356
-279 683 -533 920 -323 302 -675 466 -1112 519 -79 9 -323 11 -400 3z m350
-83 c777 -69 1423 -619 1611 -1370 156 -628 -21 -1273 -477 -1736 -274 -277
-611 -448 -1022 -519 -135 -23 -414 -21 -558 4 -472 82 -877 324 -1158 691
-196 255 -308 518 -361 845 -22 132 -22 397 -1 530 88 550 385 1000 855 1294
316 198 727 295 1111 261z"/>
<path d="M1374 2955 c-61 -66 -135 -176 -197 -296 -237 -449 -233 -988 9
-1436 78 -146 199 -304 243 -318 47 -14 101 30 101 83 0 10 -33 62 -73 115
-88 116 -146 215 -192 328 -151 372 -135 782 47 1143 43 86 101 176 158 246
68 83 75 116 35 155 -39 40 -80 34 -131 -20z"/>
<path d="M3562 2977 c-35 -37 -29 -78 21 -139 143 -176 246 -391 298 -623 10
-41 14 -128 13 -270 0 -202 -1 -214 -31 -327 -53 -199 -147 -385 -272 -539
-40 -50 -51 -71 -51 -100 0 -42 22 -66 69 -75 29 -6 36 -2 74 38 160 172 300
451 351 702 38 182 38 430 1 611 -21 98 -87 291 -132 380 -60 120 -191 310
-243 352 -25 21 -74 15 -98 -10z"/>
<path d="M1689 2705 c-55 -30 -168 -211 -223 -358 -50 -135 -70 -248 -69 -402
1 -251 66 -449 217 -662 75 -105 124 -128 171 -77 38 41 32 70 -37 164 -109
152 -170 311 -187 491 -23 248 46 495 194 684 25 33 48 70 52 83 7 30 -12 67
-44 81 -31 14 -42 13 -74 -4z"/>
<path d="M3280 2700 c-19 -19 -24 -37 -21 -70 1 -8 29 -54 62 -102 78 -114
123 -210 155 -333 23 -85 27 -120 27 -240 0 -119 -4 -155 -26 -240 -31 -116
-97 -255 -162 -340 -59 -77 -69 -101 -55 -136 14 -33 48 -52 85 -47 53 6 165
158 234 318 120 278 121 596 4 880 -46 112 -147 268 -199 309 -34 27 -78 27
-104 1z"/>
<path d="M2419 2670 c-156 -25 -281 -91 -399 -209 -179 -181 -249 -420 -195
-671 43 -205 195 -395 390 -490 205 -100 449 -97 653 10 182 94 312 257 368
460 28 101 26 283 -4 380 -80 254 -259 432 -503 500 -85 23 -230 33 -310 20z
m185 -534 c301 -179 308 -184 285 -199 -58 -36 -601 -357 -605 -357 -2 0 -4
167 -4 370 0 204 3 370 8 370 4 0 146 -83 316 -184z"/>
<path d="M8688 2731 c-73 -29 -105 -57 -138 -124 -26 -54 -31 -77 -37 -173
l-6 -110 -58 -37 -59 -36 0 -66 0 -65 60 0 60 0 2 -427 3 -428 125 0 125 0 3
428 2 427 85 0 85 0 0 70 c0 39 4 70 8 70 4 0 45 -129 91 -287 46 -159 111
-380 144 -493 33 -113 60 -216 60 -230 0 -48 -34 -140 -64 -174 -38 -44 -86
-60 -150 -52 l-49 7 0 -106 c0 -91 2 -107 18 -113 9 -4 62 -7 117 -7 87 0 107
3 155 26 68 33 119 83 159 159 45 84 53 108 151 480 49 184 96 360 105 390 8
30 39 145 69 255 l53 200 -130 3 c-72 1 -134 -1 -138 -5 -6 -6 -109 -507 -148
-718 l-7 -40 -13 70 c-11 61 -38 177 -143 607 l-21 88 -216 2 -216 3 0 75 c0
57 5 83 18 104 18 26 23 28 70 23 29 -2 59 -8 68 -11 14 -6 22 9 49 88 17 53
29 100 26 105 -12 19 -116 41 -193 41 -51 -1 -94 -7 -125 -19z"/>
<path d="M8045 2708 c-56 -44 -71 -131 -32 -189 32 -48 62 -60 130 -56 49 3
63 8 90 35 29 30 32 38 32 98 0 63 -1 67 -37 100 -34 31 -43 34 -97 34 -45 0
-65 -5 -86 -22z"/>
<path d="M4792 1958 l3 -693 117 -3 c117 -3 117 -3 124 22 3 13 4 263 2 554
-1 292 -2 529 -1 528 1 -1 57 -247 123 -546 67 -300 124 -548 126 -552 3 -5
68 -8 144 -8 123 0 139 2 144 18 3 9 59 262 126 561 66 300 121 546 123 547 1
1 2 -250 2 -559 l0 -562 123 -3 122 -3 0 696 0 695 -203 0 -204 0 -26 -122
c-14 -68 -35 -163 -46 -213 -11 -49 -49 -229 -86 -400 -37 -170 -70 -314 -74
-318 -4 -4 -13 16 -19 45 -41 191 -105 483 -117 538 -8 36 -21 99 -30 140 -9
41 -29 131 -44 200 l-27 125 -202 3 -202 2 2 -692z"/>
<path d="M7506 2338 c-122 -14 -209 -71 -252 -163 -29 -61 -33 -176 -8 -249
21 -61 96 -143 187 -202 137 -89 176 -145 147 -215 -32 -77 -156 -78 -307 -1
-22 12 -43 18 -47 15 -9 -9 -7 -196 2 -209 30 -46 210 -80 331 -63 133 18 203
64 252 165 29 58 32 74 32 153 0 151 -41 213 -215 329 -116 76 -138 101 -138
153 0 92 87 111 227 49 l41 -18 42 91 c48 105 49 101 -49 138 -72 27 -159 36
-245 27z"/>
<path d="M6280 1972 c0 -383 9 -489 47 -574 45 -101 123 -150 242 -150 102 -1
173 34 232 115 l28 38 11 -43 c26 -101 14 -93 128 -96 l102 -3 0 531 0 530
-130 0 -130 0 0 -292 c0 -161 -5 -326 -10 -367 -17 -129 -62 -191 -140 -191
-47 0 -70 17 -93 68 -20 45 -21 66 -25 415 l-4 367 -129 0 -129 0 0 -348z"/>
<path d="M8002 1793 l3 -528 125 0 125 0 3 528 2 527 -130 0 -130 0 2 -527z"/>
</g>
</svg>
